<svg width="18" height="16" viewBox="0 0 18 16" fill="none" xmlns="http://www.w3.org/2000/svg">
<path fill-rule="evenodd" clip-rule="evenodd" d="M9 0H3C1.34315 0 0 1.34315 0 3V13C0 14.6569 1.34315 16 3 16H9H10C10.5523 16 11 15.5523 11 15C11 14.4477 10.5523 14 10 14H9H3C2.44772 14 2 13.5523 2 13V3C2 2.44772 2.44772 2 3 2H9H10C10.5523 2 11 1.55228 11 1C11 0.447715 10.5523 0 10 0H9ZM9 7C8.44771 7 8 7.44772 8 8C8 8.55229 8.44772 9 9 9H14.6514L13.0431 10.6083C12.6526 10.9989 12.6526 11.632 13.0431 12.0226C13.4336 12.4131 14.0668 12.4131 14.4573 12.0226L17.6994 8.7805C17.8768 8.60302 17.9737 8.37542 17.9898 8.14325C17.9965 8.09647 18 8.04864 18 8C18 7.94881 17.9962 7.89851 17.9887 7.84939C17.9619 7.63695 17.8669 7.43148 17.7038 7.26835L14.4617 4.02629C14.0712 3.63577 13.438 3.63577 13.0475 4.02629C12.657 4.41682 12.657 5.04998 13.0475 5.44051L14.607 7H9Z" fill="#08A652"/>
</svg>
